# AST/ASF file generated using VICON BodyLanguage
# -----------------------------------------------
:version 1.10
:name VICON
:units
  mass 1.0
  length 0.45
  angle deg
:documentation
   .ast/.asf automatically generated from VICON data using
   VICON BodyBuilder and BodyLanguage model FoxedUp or BRILLIANT.MOD
:root
   order TX TY TZ RX RY RZ
   axis XYZ
   position 0 0 0  
   orientation 0 0 0 
:bonedata
  begin
     id 1 
     name lhipjoint
     direction 0.64773 -0.699417 0.302095 
     length 2.48597 
     axis 0 0 0  XYZ
  end
  begin
     id 2 
     name lfemur
     direction 0.34202 -0.939693 0  
     length 6.71947  
     axis 0 0 20  XYZ
    dof rx ry rz
    limits (-160.0 20.0)
           (-70.0 70.0)
           (-60.0 70.0)
  end
  begin
     id 3 
     name ltibia
     direction 0.34202 -0.939693 0   
     length 8.08777   
     axis 0 0 20   XYZ
    dof rx
    limits (-10.0 170.0)
  end
  begin
     id 4 
     name lfoot
     direction 0.0808503 -0.222134 0.971658   
     length 2.08264   
     axis -90 7.62852e-016 20   XYZ
    dof rx rz
    limits (-45.0 90.0)
           (-70.0 20.0)
  end
  begin
     id 5 
     name ltoes
     direction 1.53502e-011 -4.22007e-011 1   
     length 1.04662   
     axis -90 7.62852e-016 20   XYZ
    dof rx
    limits (-90.0 20.0)
  end
  begin
     id 6 
     name rhipjoint
     direction -0.610924 -0.726792 0.313919   
     length 2.39233  
     axis 0 0 0  XYZ 
  end
  begin
     id 7 
     name rfemur
     direction -0.34202 -0.939693 0   
     length 6.96955   
     axis 0 0 -20   XYZ
    dof rx ry rz
    limits (-160.0 20.0)
           (-70.0 70.0)
           (-70.0 60.0)
  end
  begin
     id 8 
     name rtibia
     direction -0.34202 -0.939693 0   
     length 8.19584   
     axis 0 0 -20   XYZ
    dof rx
    limits (-10.0 170.0)
 end
 begin
     id 9 
     name rfoot
     direction -0.077777 -0.213691 0.9738   
     length 2.07539  
     axis -90 -7.62852e-016 -20   XYZ
    dof rx rz
    limits (-45.0 90.0)
           (-20.0 70.0)
  end
  begin
     id 10 
     name rtoes
     direction -1.53558e-011 -4.22006e-011 1   
     length 1.04381   
     axis -90 -7.62852e-016 -20   XYZ
    dof rx
    limits (-90.0 20.0)
  end
  begin
     id 11 
     name lowerback
     direction -0.00971646 0.996074 0.0879841   
     length 1.67643   
     axis 0 0 0   XYZ
    dof rx ry rz
    limits (-20.0 45.0)
           (-30.0 30.0)
           (-30.0 30.0)
  end
  begin
     id 12 
     name upperback
     direction 0.0127391 0.991676 0.128127   
     length 1.63741   
     axis 0 0 0   XYZ
    dof rx ry rz
    limits (-20.0 45.0)
           (-30.0 30.0)
           (-30.0 30.0)
  end
  begin
     id 13 
     name thorax
     direction 0.0167583 0.996049 0.0872067   
     length 1.65931   
     axis 0 0 0   XYZ
    dof rx ry rz
    limits (-20.0 45.0)
           (-30.0 30.0)
           (-30.0 30.0)
  end
  begin
     id 14 
     name lowerneck
     direction -0.0317829 0.998312 0.0486079   
     length 1.79021   
     axis 0 0 0   XYZ
    dof rx ry rz
    limits (-20.0 45.0)
           (-30.0 30.0)
           (-30.0 30.0)
  end
  begin
     id 15 
     name upperneck
     direction 0.0896851 0.972452 -0.215159   
     length 1.78797   
     axis 0 0 0   XYZ
    dof rx ry rz
    limits (-20.0 45.0)
           (-30.0 30.0)
           (-30.0 30.0)
  end
  begin
     id 16
     name head
     direction 0.0310949 0.996503 -0.0775582  
     length 1.81549  
     axis 0 0 0   XYZ
    dof rx ry rz
    limits (-20.0 45.0)
           (-30.0 30.0)
           (-30.0 30.0)
  end
  begin
     id 17 
     name lclavicle
     direction 0.853638 0.502051 -0.138733  
     length 3.31627  
     axis 0 0 0   XYZ
    dof ry rz
    limits (-20.0 10.0)
           (0.0 20.0)
  end
  begin
     id 18 
     name lhumerus
     direction 1 -4.48962e-011 -1.41788e-018   
     length 5.54893   
     axis 180 -30 -90   XYZ
    dof rx ry rz
    limits (-60.0 90.0)
           (-90.0 90.0)
           (-90.0 90.0)
  end
  begin
     id 19
     name lradius
     direction 1 -4.48962e-011 -4.95754e-027   
     length 3.02898   
     axis 180 -30 -90   XYZ
    dof rx
    limits (-10.0 170.0)
  end
  begin
     id 20
     name lwrist
     direction 1 -4.48952e-011 -1.03764e-026   
     length 1.51449   
     axis 9.09556e-015 90 90   XYZ
    dof ry
    limits (-180.0 0.0)
 end
  begin
     id 21 
     name lhand
     direction 1 -4.4902e-011 -2.07528e-026   
     length 0.640951   
     axis 1.3242e-014 90 90   XYZ
    dof rx rz
    limits (-90.0 90.0)
           (-45.0 45.0)
  end
  begin
     id 22 
     name lfingers
     direction 1 -4.49014e-011 -4.15056e-026   
     length 0.516751   
     axis 2.64841e-014 90 90   XYZ
    dof rx
    limits (0.0 90.0)
  end
  begin
     id 23
     name lthumb
     direction 0.707107 -6.35008e-011 0.707107   
     length 0.741954   
     axis -90 45 2.85299e-015   XYZ
    dof rx rz
    limits (-45.0 45.0)
           (-45.0 45.0)
  end
  begin
     id 24 
     name rclavicle
     direction -0.888531 0.455324 -0.0565039   
     length 3.20126  
     axis 0 0 0   XYZ 
    dof ry rz
    limits (-10.0 20.0)
           (-20.0 0.0)
  end
  begin
     id 25 
     name rhumerus
     direction -1 -4.48946e-011 -8.98298e-028  
     length 5.3519   
     axis 180 30 90   XYZ
    dof rx ry rz
    limits (-90.0 60.0)
           (-90.0 90.0)
           (-90.0 90.0)
  end
  begin
     id 26 
     name rradius
     direction -1 -4.4899e-011 -3.18779e-027   
     length 3.02531   
     axis 180 30 90   XYZ
    dof rx
    limits (-10.0 170.0)
  end
  begin
     id 27 
     name rwrist
     direction -1 -4.4897e-011 -1.03764e-026   
     length 1.51266   
     axis 9.09556e-015 -90 -90   XYZ
    dof ry
    limits (-180.0 0.0)
  end
  begin
     id 28
     name rhand
     direction -1 -4.48941e-011 -2.07528e-026   
     length 0.78389   
     axis 1.3242e-014 -90 -90   XYZ
    dof rx rz
    limits (-90.0 90.0)
           (-45.0 45.0)
  end
  begin
     id 29
     name rfingers
     direction -1 -4.49012e-011 -4.15056e-026   
     length 0.631992   
     axis 2.64841e-014 -90 -90   XYZ
    dof rx
    limits (0.0 90.0)
  end
  begin
     id 30
     name rthumb
     direction -0.707107 -6.3496e-011 0.707107   
     length 0.907418   
     axis -90 -45 -2.85299e-015   XYZ
    dof rx rz
    limits (-45.0 45.0)
           (-45.0 45.0)
  end
:hierarchy
  begin
    root lhipjoint rhipjoint lowerback
    lhipjoint lfemur
    lfemur ltibia
    ltibia lfoot
    lfoot ltoes
    rhipjoint rfemur
    rfemur rtibia
    rtibia rfoot
    rfoot rtoes
    lowerback upperback
    upperback thorax
    thorax lowerneck lclavicle rclavicle
    lowerneck upperneck
    upperneck head
    lclavicle lhumerus
    lhumerus lradius
    lradius lwrist
    lwrist lhand lthumb
    lhand lfingers
    rclavicle rhumerus
    rhumerus rradius
    rradius rwrist
    rwrist rhand rthumb
    rhand rfingers
  end

#!OML:ASF E:\Style3\Style3.ASF
:FULLY-SPECIFIED
:DEGREES
1931
root 0.787524 17.767 0.968705 -162.342 60.856 180.099
lowerback -6.65979 -1.44628 -8.05454
upperback -7.87751 -1.14762 -4.45976
thorax -4.42673 -0.0200484 -0.210875
lowerneck -8.17447 4.74185 1.2369
upperneck 26.5451 14.1676 -17.8535
head 11.5302 5.53676 -4.82112
rclavicle -4.16454e-014 1.59028e-014
rhumerus 20.5636 18.8851 -0.12115
rradius 134.786
rwrist -64.8782
rhand 27.8466 6.72769
rfingers 7.12502
rthumb 51.7609 -13.5189
lclavicle -4.16454e-014 1.59028e-014
lhumerus -26.4974 -32.2815 73.0717
lradius 117.983
lwrist 19.7395
lhand 15.1357 22.2957
lfingers 7.12502
lthumb 39.9794 47.528
rfemur -8.62332 7.86428 20.6051
rtibia 8.43769
rfoot -19.8725 -32.8405
rtoes -7.23947
lfemur -22.0461 -23.0519 -6.42194
ltibia 10.424
lfoot -7.76571 6.48412
ltoes -26.163
1932
root 0.788454 17.7627 0.972526 -162.508 60.7785 179.928
lowerback -6.55131 -1.50875 -8.26854
upperback -7.9119 -1.23633 -4.40319
thorax -4.51705 -0.0475304 -0.0364996
lowerneck -7.87784 4.8011 1.29807
upperneck 26.5489 14.3053 -17.9624
head 11.5032 5.62279 -4.86284
rclavicle -5.46658e-016 3.97569e-014
rhumerus 18.8459 15.6825 -3.10915
rradius 136.582
rwrist -64.8687
rhand 24.9619 7.42074
rfingers 7.12502
rthumb 49.1262 -14.249
lclavicle -5.46658e-016 3.97569e-014
lhumerus -26.8844 -32.1704 73.3141
lradius 117.965
lwrist 19.3643
lhand 14.9363 22.1549
lfingers 7.12502
lthumb 39.7917 47.4435
rfemur -8.80955 7.76411 20.58
rtibia 8.85514
rfoot -20.1358 -32.8014
rtoes -7.35021
lfemur -21.9418 -23.0954 -6.47019
ltibia 10.2172
lfoot -7.69931 6.38082
ltoes -26.438
1933
root 0.789037 17.7569 0.977308 -162.742 60.6992 179.675
lowerback -6.47995 -1.56102 -8.51566
upperback -7.89498 -1.30493 -4.36405
thorax -4.53241 -0.0679885 0.138998
lowerneck -7.59081 4.85702 1.37799
upperneck 26.4808 14.4173 -18.0984
head 11.4505 5.698 -4.91949
rclavicle -3.2054e-014 0
rhumerus 17.4292 12.1415 -5.87483
rradius 138.281
rwrist -65.3673
rhand 21.8974 7.39949
rfingers 7.12502
rthumb 46.2983 -15.5698
lclavicle -3.2054e-014 0
lhumerus -27.0638 -32.1278 73.4584
lradius 117.951
lwrist 19.0681
lhand 14.6401 22.123
lfingers 7.12502
lthumb 39.5128 47.4942
rfemur -8.95543 7.65101 20.5203
rtibia 9.19194
rfoot -20.5691 -32.6663
rtoes -6.52806
lfemur -21.8364 -23.1179 -6.56149
ltibia 10.0384
lfoot -7.69345 6.25189
ltoes -26.8276
1934
root 0.790216 17.754 0.981028 -162.785 60.6252 179.612
lowerback -6.45817 -1.62495 -8.66479
upperback -7.85274 -1.38827 -4.28165
thorax -4.49079 -0.104212 0.305648
lowerneck -7.46962 4.93065 1.38964
upperneck 26.4929 14.5703 -18.1676
head 11.4593 5.77449 -4.93031
rclavicle 7.76751e-014 4.13472e-014
rhumerus 16.3243 8.55116 -8.35266
rradius 139.791
rwrist -66.1092
rhand 18.6651 7.78924
rfingers 7.12502
rthumb 43.2895 -16.3536
lclavicle 7.76751e-014 4.13472e-014
lhumerus -27.1615 -32.0068 73.4935
lradius 117.902
lwrist 18.7933
lhand 14.6599 22.0348
lfingers 7.12502
lthumb 39.5314 47.4004
rfemur -9.08048 7.57072 20.5417
rtibia 9.42385
rfoot -20.7249 -32.6475
rtoes -6.33036
lfemur -21.8057 -23.0719 -6.57115
ltibia 9.94607
lfoot -7.66484 6.10926
ltoes -26.9325
1935
root 0.790603 17.754 0.983206 -162.69 60.5548 179.736
lowerback -6.39848 -1.6801 -8.66814
upperback -7.81294 -1.47294 -4.18752
thorax -4.47324 -0.148962 0.405144
lowerneck -7.4013 5.00394 1.37744
upperneck 26.545 14.7163 -18.1806
head 11.4867 5.84357 -4.91616
rclavicle 1.64991e-014 5.08889e-014
rhumerus 15.4811 4.95886 -10.6736
rradius 140.94
rwrist -67.1422
rhand 15.8711 8.97061
rfingers 7.12502
rthumb 40.6709 -16.0495
lclavicle 1.64991e-014 5.08889e-014
lhumerus -27.3366 -31.8634 73.4985
lradius 117.941
lwrist 18.4862
lhand 14.7295 21.9955
lfingers 7.12502
lthumb 39.5969 47.3419
rfemur -9.09443 7.51997 20.6477
rtibia 9.49469
rfoot -20.7904 -32.6474
rtoes -6.46001
lfemur -21.829 -23.0017 -6.50737
ltibia 10.0005
lfoot -7.65233 5.95793
ltoes -26.8855
1936
root 0.787841 17.7526 0.98427 -162.615 60.4845 179.85
lowerback -6.33287 -1.71559 -8.63533
upperback -7.77094 -1.53303 -4.12534
thorax -4.4594 -0.183781 0.452193
lowerneck -7.31362 5.06862 1.46615
upperneck 26.6659 14.848 -18.1828
head 11.5403 5.91535 -4.92091
rclavicle 4.19436e-014 3.18055e-014
rhumerus 14.844 1.2384 -12.9409
rradius 142.027
rwrist -68.64
rhand 13.1407 9.75267
rfingers 7.12502
rthumb 38.0987 -16.0196
lclavicle 4.19436e-014 3.18055e-014
lhumerus -27.4696 -31.7473 73.5102
lradius 118.005
lwrist 17.951
lhand 15.0681 21.7844
lfingers 7.12502
lthumb 39.9158 47.0358
rfemur -9.01026 7.46595 20.7394
rtibia 9.39321
rfoot -20.7429 -32.6678
rtoes -6.54584
lfemur -21.9369 -22.9204 -6.46676
ltibia 10.2162
lfoot -7.72703 5.80349
ltoes -27.2471
1937
root 0.784615 17.7519 0.985636 -162.499 60.3827 180.018
lowerback -6.27313 -1.75996 -8.55749
upperback -7.72237 -1.6062 -4.05093
thorax -4.43434 -0.228199 0.487018
lowerneck -7.32682 5.13733 1.50753
upperneck 26.895 14.9903 -18.0785
head 11.6454 5.98388 -4.87501
rclavicle 2.48481e-015 4.77083e-015
rhumerus 14.4847 -2.54797 -15.1169
rradius 143.139
rwrist -70.3591
rhand 9.9408 9.78931
rfingers 7.12502
rthumb 35.0702 -16.7503
lclavicle 2.48481e-015 4.77083e-015
lhumerus -27.5694 -31.6976 73.5011
lradius 118.066
lwrist 17.5246
lhand 15.0385 21.7372
lfingers 7.12502
lthumb 39.8879 46.997
rfemur -8.87365 7.39019 20.8672
rtibia 9.21149
rfoot -20.7789 -32.5843
rtoes -6.03563
lfemur -22.0933 -22.8506 -6.39601
ltibia 10.4957
lfoot -7.81739 5.66496
ltoes -27.3982
1938
root 0.779899 17.7512 0.987154 -162.418 60.2927 180.154
lowerback -6.23362 -1.79705 -8.47947
upperback -7.64984 -1.66623 -3.99917
thorax -4.37395 -0.268591 0.498318
lowerneck -7.3272 5.19522 1.58863
upperneck 27.0902 15.0952 -17.9825
head 11.7327 6.03981 -4.84395
rclavicle 1.44616e-014 9.22361e-014
rhumerus 14.318 -6.18495 -17.2045
rradius 144.122
rwrist -71.6052
rhand 6.74912 9.9647
rfingers 7.12502
rthumb 32.0369 -17.2338
lclavicle 1.44616e-014 9.22361e-014
lhumerus -27.584 -31.7126 73.4972
lradius 118.033
lwrist 17.1822
lhand 14.7662 21.7298
lfingers 7.12502
lthumb 39.6315 47.066
rfemur -8.72355 7.3196 20.9698
rtibia 9.0068
rfoot -20.6087 -32.5967
rtoes -6.01236
lfemur -22.2443 -22.7457 -6.36005
ltibia 10.788
lfoot -7.94217 5.50685
ltoes -27.3626
1939
root 0.775133 17.7516 0.987962 -162.373 60.2805 180.241
lowerback -6.20946 -1.81739 -8.4569
upperback -7.58692 -1.69937 -3.96034
thorax -4.31696 -0.291946 0.526797
lowerneck -7.18208 5.23875 1.78859
upperneck 27.1453 15.1545 -18.0174
head 11.7491 6.09176 -4.8914
rclavicle 6.85807e-015 1.00187e-013
rhumerus 14.4461 -9.73301 -19.2512
rradius 145.059
rwrist -72.8668
rhand 3.52714 10.1254
rfingers 7.12502
rthumb 28.9642 -17.6445
lclavicle 6.85807e-015 1.00187e-013
lhumerus -27.5331 -31.714 73.4836
lradius 118.046
lwrist 16.9084
lhand 14.6076 21.6863
lfingers 7.12502
lthumb 39.4822 47.0664
rfemur -8.6168 7.31454 21.0142
rtibia 8.83051
rfoot -20.4964 -32.6376
rtoes -6.21645
lfemur -22.3688 -22.7051 -6.33483
ltibia 11.0389
lfoot -8.07668 5.46973
ltoes -27.2886
1940
root 0.769592 17.7514 0.987972 -162.195 60.2722 180.481
lowerback -6.21364 -1.85903 -8.38944
upperback -7.50187 -1.76139 -3.84354
thorax -4.21654 -0.334312 0.610995
lowerneck -7.17978 5.3087 1.87869
upperneck 27.3068 15.2974 -18.0018
head 11.8382 6.16107 -4.88617
rclavicle 4.96962e-016 -6.36111e-015
rhumerus 14.9969 -13.1697 -21.3033
rradius 146.004
rwrist -74.2759
rhand -0.00173714 10.1284
rfingers 7.12502
rthumb 25.5887 -18.1726
lclavicle 4.96962e-016 -6.36111e-015
lhumerus -27.4925 -31.733 73.4349
lradius 118.127
lwrist 16.7779
lhand 14.4159 21.7212
lfingers 7.12502
lthumb 39.3016 47.1541
rfemur -8.54504 7.33559 21.1255
rtibia 8.70604
rfoot -20.4511 -32.6296
rtoes -6.11774
lfemur -22.4567 -22.6698 -6.22859
ltibia 11.243
lfoot -8.15148 5.493
ltoes -27.2303
1941
root 0.76269 17.7524 0.99013 -162.134 60.2715 180.599
lowerback -6.14408 -1.94276 -8.43531
upperback -7.40669 -1.88535 -3.69872
thorax -4.13948 -0.401582 0.785942
lowerneck -7.32212 5.40715 1.93542
upperneck 27.491 15.4947 -17.9833
head 11.9734 6.23902 -4.86111
rclavicle 4.26393e-014 3.65764e-014
rhumerus 15.8048 -16.4257 -23.3472
rradius 146.871
rwrist -75.6535
rhand -3.3881 10.2757
rfingers 7.12502
rthumb 22.3415 -18.4525
lclavicle 4.26393e-014 3.65764e-014
lhumerus -27.5097 -31.873 73.2753
lradius 118.326
lwrist 16.8412
lhand 14.0528 21.8774
lfingers 7.12502
lthumb 38.9593 47.409
rfemur -8.50145 7.3468 21.1882
rtibia 8.64392
rfoot -20.3887 -32.6528
rtoes -5.83888
lfemur -22.5064 -22.5832 -6.20583
ltibia 11.3862
lfoot -8.15515 5.41242
ltoes -27.2826
1942
root 0.753287 17.7531 0.991206 -162.072 60.2685 180.734
lowerback -6.05874 -1.98761 -8.38122
upperback -7.29831 -1.96253 -3.61709
thorax -4.06409 -0.452129 0.84176
lowerneck -7.4056 5.46984 2.05704
upperneck 27.5916 15.5887 -17.9704
head 12.0524 6.28182 -4.86429
rclavicle -1.97045e-014 7.95139e-015
rhumerus 16.7023 -19.4665 -25.3694
rradius 147.546
rwrist -76.5428
rhand -6.51419 10.8314
rfingers 7.12502
rthumb 19.338 -18.227
lclavicle -1.97045e-014 7.95139e-015
lhumerus -27.4347 -32.0538 73.0918
lradius 118.437
lwrist 17.0375
lhand 13.8847 22.0766
lfingers 7.12502
lthumb 38.8008 47.6534
rfemur -8.45384 7.35568 21.2442
rtibia 8.60381
rfoot -20.2177 -32.7026
rtoes -6.38306
lfemur -22.5433 -22.5132 -6.17812
ltibia 11.5216
lfoot -8.18272 5.33115
ltoes -27.094
1943
root 0.744504 17.7533 0.992216 -162.119 60.3179 180.752
lowerback -6.04591 -1.92206 -8.28694
upperback -7.20667 -1.88256 -3.62586
thorax -3.98156 -0.425833 0.784282
lowerneck -7.27955 5.41386 1.99478
upperneck 27.7203 15.4886 -17.7963
head 12.0389 6.24986 -4.81028
rclavicle -3.96575e-014 6.20208e-014
rhumerus 17.5497 -22.3437 -27.1999
rradius 148.17
rwrist -76.8768
rhand -9.46216 11.8261
rfingers 7.12502
rthumb 16.5015 -17.4921
lclavicle -3.96575e-014 6.20208e-014
lhumerus -27.4743 -32.1873 73.217
lradius 118.424
lwrist 17.2586
lhand 13.8611 22.0624
lfingers 7.12502
lthumb 38.7785 47.6455
rfemur -8.44191 7.39405 21.2154
rtibia 8.63898
rfoot -20.1332 -32.6907
rtoes -6.60535
lfemur -22.5276 -22.4749 -6.22635
ltibia 11.6072
lfoot -8.21361 5.37412
ltoes -27.3943
